<?xml version="1.0" standalone="no"?>
<!DOCTYPE svg PUBLIC "-//W3C//DTD SVG 20010904//EN"
 "http://www.w3.org/TR/2001/REC-SVG-20010904/DTD/svg10.dtd">
<svg version="1.0" xmlns="http://www.w3.org/2000/svg"
 width="608.000000pt" height="608.000000pt" viewBox="0 0 608.000000 608.000000"
 preserveAspectRatio="xMidYMid meet">

<g transform="translate(0.000000,608.000000) scale(0.100000,-0.100000)"
fill="#000000" stroke="none">
<path d="M3285 5330 c-547 -56 -1053 -301 -1433 -693 -62 -65 -100 -112 -96
-119 4 -6 3 -8 -4 -4 -13 8 -104 -105 -97 -122 3 -7 1 -11 -4 -8 -13 8 -34
-21 -25 -35 4 -7 3 -9 -3 -6 -17 11 -125 -162 -117 -187 4 -16 3 -17 -4 -7 -8
11 -15 5 -31 -27 -11 -22 -18 -47 -15 -55 3 -8 1 -18 -5 -22 -7 -4 -9 1 -6 12
3 10 -16 -25 -41 -77 -26 -52 -47 -107 -48 -122 -1 -14 -4 -24 -8 -22 -3 2
-11 -10 -17 -28 -14 -39 -14 -41 2 -33 6 4 4 0 -5 -7 -9 -8 -20 -26 -23 -41
-6 -22 -4 -26 9 -21 9 3 16 1 16 -6 0 -6 -4 -8 -10 -5 -5 3 -10 -2 -10 -12 0
-13 -3 -15 -8 -5 -6 9 -13 -1 -21 -29 -7 -23 -9 -45 -4 -48 11 -9 13 -71 1
-71 -5 0 -7 -4 -3 -9 3 -5 1 -12 -5 -16 -5 -3 -10 -20 -10 -36 0 -18 4 -28 10
-24 6 4 10 -6 9 -22 0 -25 -1 -26 -9 -8 -5 12 -8 -114 -7 -300 0 -177 3 -284
7 -240 l6 80 2 -77 c1 -43 -2 -80 -8 -83 -5 -3 -9 -39 -8 -78 1 -71 1 -71 8
-22 l7 50 1 -59 c1 -33 -1 -56 -5 -53 -3 4 -12 -1 -20 -11 -13 -16 -14 -15
-10 5 3 13 1 26 -4 29 -5 3 -9 22 -10 42 -1 20 -5 48 -10 62 -13 37 0 -87 16
-152 9 -35 13 -44 14 -26 1 15 6 30 12 33 14 9 27 -4 13 -13 -18 -12 -23 -64
-12 -117 9 -41 12 -46 19 -30 7 15 8 12 4 -10 -5 -28 25 -131 69 -240 15 -38
18 -40 59 -40 41 0 42 0 42 -35 0 -31 -3 -35 -26 -35 l-27 1 31 -63 c17 -34
32 -61 33 -60 1 1 5 40 8 87 4 49 12 88 19 92 7 4 27 8 46 8 30 0 33 -2 27
-23 -3 -12 -9 -72 -12 -132 -6 -94 -4 -112 9 -123 45 -38 72 16 83 165 4 54
12 101 18 105 6 4 24 8 40 8 l29 0 -8 -101 c-12 -170 -44 -236 -125 -254 l-30
-7 17 -28 c9 -16 21 -26 26 -23 6 3 7 1 4 -4 -7 -11 4 -27 70 -110 l34 -42 35
21 c97 57 191 -7 195 -134 1 -25 3 -32 6 -18 8 55 14 70 39 100 38 44 94 70
154 70 43 0 50 -3 50 -19 0 -41 -11 -51 -55 -51 -24 0 -51 -3 -60 -6 -26 -10
-45 -59 -45 -117 0 -59 17 -90 58 -102 21 -6 22 -4 22 53 0 64 6 72 57 72 l26
0 -7 -82 c-4 -46 -12 -86 -19 -90 -23 -15 -101 -21 -129 -10 -15 6 -28 9 -28
7 0 -8 193 -148 271 -196 107 -67 338 -178 450 -217 833 -291 1761 -83 2374
533 339 340 556 769 629 1240 38 244 38 601 1 820 -27 157 -84 361 -85 305 0
-8 -13 -43 -30 -78 -34 -72 -30 -96 19 -105 l30 -6 -20 -73 c-11 -40 -33 -95
-49 -121 -17 -27 -30 -50 -30 -53 0 -2 11 -4 24 -4 14 0 36 -4 49 -9 24 -9 25
-12 16 -53 -5 -24 -26 -78 -48 -120 l-38 -76 45 -12 45 -11 -7 -47 c-10 -78
-70 -187 -124 -227 -59 -44 -140 -75 -194 -75 l-41 0 5 -426 5 -425 -36 -44
-36 -45 -6 293 c-3 160 -7 373 -8 472 l-1 181 -53 0 c-73 1 -165 44 -218 101
-43 47 -74 107 -95 186 -12 47 -12 48 12 58 14 5 34 9 44 9 30 0 32 16 6 55
-33 49 -68 142 -64 174 2 21 11 27 43 35 22 5 42 10 44 12 2 2 -10 25 -26 51
-16 26 -32 56 -36 66 -8 21 -16 20 -180 -34 -339 -112 -629 -292 -885 -547
l-94 -93 -108 110 c-290 292 -640 485 -1075 592 -210 51 -366 70 -637 76 -199
5 -248 8 -248 19 0 35 78 242 135 359 142 293 345 539 600 730 136 101 198
139 356 214 276 133 539 191 858 192 240 0 385 -19 586 -78 131 -38 226 -74
219 -84 -3 -5 1 -6 9 -3 20 7 199 -85 190 -98 -4 -8 0 -9 11 -5 12 5 41 -9 89
-41 39 -26 78 -51 86 -57 9 -5 33 -23 53 -38 31 -23 43 -27 73 -21 19 3 35 8
35 10 0 3 -11 21 -24 42 -22 32 -35 68 -64 172 -10 35 -174 143 -347 229 -313
156 -611 228 -965 236 -102 2 -225 0 -275 -5z m-1958 -1602 c-3 -8 -6 -5 -6 6
-1 11 2 17 5 13 3 -3 4 -12 1 -19z m0 -120 c-3 -8 -6 -5 -6 6 -1 11 2 17 5 13
3 -3 4 -12 1 -19z m-50 -275 c-3 -10 -5 -2 -5 17 0 19 2 27 5 18 2 -10 2 -26
0 -35z m0 -130 c-2 -21 -4 -6 -4 32 0 39 2 55 4 38 2 -18 2 -50 0 -70z m370
42 c-6 -25 -14 -45 -19 -45 -4 0 -8 -4 -8 -10 0 -5 7 -10 15 -10 17 0 21 -16
5 -22 -5 -1 -11 -18 -13 -37 -3 -40 -27 -56 -27 -18 0 13 3 53 7 88 4 44 9 57
14 44 6 -16 8 -14 8 12 1 17 7 34 14 36 6 3 13 6 13 6 1 1 -3 -19 -9 -44z
m-370 -237 c-2 -29 -3 -8 -3 47 0 55 1 79 3 53 2 -26 2 -71 0 -100z m370 80
c-3 -7 -5 -2 -5 12 0 14 2 19 5 13 2 -7 2 -19 0 -25z m15 -303 c-2 -14 -8 -22
-13 -20 -4 3 -6 12 -2 20 3 8 0 15 -7 15 -8 0 -9 -10 -5 -31 5 -22 4 -29 -4
-25 -6 4 -11 20 -11 37 0 24 4 29 24 29 19 0 22 -4 18 -25z m-385 -27 c-3 -8
-6 -5 -6 6 -1 11 2 17 5 13 3 -3 4 -12 1 -19z m2562 -26 c-5 -2 -7 -7 -5 -11
3 -4 -4 -12 -14 -19 -25 -15 -48 9 -26 27 12 10 14 8 9 -11 -5 -22 -5 -22 10
-3 8 10 12 26 9 34 -5 14 -4 14 10 1 9 -8 12 -17 7 -18z m-2179 -43 c0 -24 -4
-38 -10 -34 -5 3 -10 22 -10 41 0 19 5 34 10 34 6 0 10 -18 10 -41z m0 -76 c0
-16 3 -39 6 -53 4 -19 3 -21 -4 -10 -17 25 -26 90 -13 90 6 0 11 -12 11 -27z
m2201 10 c13 -16 12 -17 -3 -4 -17 13 -22 21 -14 21 2 0 10 -8 17 -17z m-2589
-95 c-7 -7 -12 -8 -12 -2 0 14 12 26 19 19 2 -3 -1 -11 -7 -17z m5 -40 c-3 -8
-6 -5 -6 6 -1 11 2 17 5 13 3 -3 4 -12 1 -19z m50 -80 c-3 -8 -6 -5 -6 6 -1
11 2 17 5 13 3 -3 4 -12 1 -19z m-19 -23 c-3 -3 -9 2 -12 12 -6 14 -5 15 5 6
7 -7 10 -15 7 -18z m13 -18 c-10 -9 -11 -8 -5 6 3 10 9 15 12 12 3 -3 0 -11
-7 -18z m6 -49 c-3 -7 -5 -2 -5 12 0 14 2 19 5 13 2 -7 2 -19 0 -25z m30 -44
c2 -52 -5 -54 -11 -3 -3 29 0 49 7 49 1 0 3 -21 4 -46z m433 -91 c0 -20 5 -23
35 -23 35 0 36 -1 30 -32 -8 -52 -25 -200 -25 -225 0 -21 4 -23 55 -23 54 0
55 -1 55 -29 0 -17 -6 -31 -16 -35 -18 -7 -168 -8 -175 -1 -3 2 1 69 8 147 17
190 19 239 9 263 -8 20 -7 20 8 1 9 -11 16 -30 16 -43z m378 -50 c-3 -24 -8
-28 -40 -31 -44 -4 -45 -7 -54 -163 -4 -64 -12 -117 -18 -121 -6 -4 -26 -8
-45 -8 -32 0 -33 1 -27 33 3 17 8 68 11 112 3 44 8 95 11 114 l5 34 -40 -7
c-40 -6 -41 -6 -41 23 0 16 6 32 13 34 6 3 61 6 120 6 l108 1 -3 -27z m88 -20
c-24 -188 -17 -243 29 -243 34 0 44 29 57 165 6 61 15 113 22 117 10 7 66 11
66 5 0 -1 -7 -60 -15 -131 -21 -177 -52 -222 -152 -220 -54 1 -88 30 -96 82
-7 41 7 244 18 261 3 6 22 11 42 11 l36 0 -7 -47z m392 27 c31 -29 30 -89 -3
-128 -17 -20 -21 -32 -13 -40 5 -5 19 -41 29 -78 21 -75 17 -84 -33 -84 -22 0
-29 6 -34 28 -12 57 -26 91 -40 103 -21 17 -27 6 -32 -59 -5 -62 -12 -72 -56
-72 -28 0 -29 1 -23 43 3 24 9 93 13 153 10 157 8 154 97 154 60 0 77 -4 95
-20z m262 -10 c0 -28 -1 -29 -57 -32 l-58 -3 -3 -37 -3 -38 45 0 c42 0 46 -2
46 -25 0 -20 -6 -25 -34 -31 -19 -3 -39 -3 -44 0 -13 8 -22 -17 -22 -60 l0
-35 60 7 c56 6 60 5 60 -14 0 -41 -25 -52 -117 -52 l-86 0 7 63 c3 34 9 109
12 167 4 58 12 108 18 112 6 4 48 8 94 8 l82 0 0 -30z m-826 -396 c4 -9 4 -19
2 -21 -8 -8 -26 8 -26 23 0 19 16 18 24 -2z m365 -128 c86 -77 57 -266 -49
-321 -38 -20 -100 -19 -129 1 -28 20 -60 88 -61 130 0 49 29 133 58 165 51 56
133 68 181 25z"/>
<path d="M2536 2053 c-3 -25 -4 -48 -1 -51 2 -2 15 -2 29 2 46 11 48 96 2 96
-20 0 -24 -6 -30 -47z"/>
<path d="M2338 1553 c-50 -57 -56 -156 -13 -199 32 -32 56 -21 79 36 25 63 18
130 -18 166 -19 18 -30 18 -48 -3z"/>
<path d="M3718 5053 c7 -3 16 -2 19 1 4 3 -2 6 -13 5 -11 0 -14 -3 -6 -6z"/>
<path d="M4048 5013 c6 -2 18 -2 25 0 6 3 1 5 -13 5 -14 0 -19 -2 -12 -5z"/>
<path d="M4085 5000 c-13 -6 -15 -9 -5 -9 8 0 22 4 30 9 18 12 2 12 -25 0z"/>
<path d="M4125 4990 c-19 -8 -19 -9 2 -9 12 -1 25 4 28 9 7 12 -2 12 -30 0z"/>
<path d="M4484 4853 c2 -9 8 -18 15 -19 6 -1 7 0 1 3 -5 2 -8 9 -5 13 3 5 1
11 -4 14 -5 4 -8 -2 -7 -11z"/>
<path d="M4649 4787 c6 -8 7 -18 3 -22 -4 -5 -1 -5 6 -1 10 6 10 11 1 22 -6 8
-14 14 -16 14 -3 0 0 -6 6 -13z"/>
<path d="M4670 4740 c-9 -6 -10 -10 -3 -10 6 0 15 5 18 10 8 12 4 12 -15 0z"/>
<path d="M4755 4711 c-3 -5 -1 -12 5 -16 5 -3 10 1 10 9 0 18 -6 21 -15 7z"/>
<path d="M4791 4687 c2 -1 13 -9 24 -17 19 -14 19 -14 6 3 -7 9 -18 17 -24 17
-6 0 -8 -1 -6 -3z"/>
<path d="M4843 4645 c0 -7 6 -11 14 -8 7 3 13 6 13 8 0 2 -6 5 -13 8 -8 3 -14
-1 -14 -8z"/>
<path d="M4806 4602 c-3 -6 -1 -14 5 -17 14 -9 20 -2 10 14 -6 8 -11 9 -15 3z"/>
<path d="M5591 3891 c-15 -21 -18 -31 -9 -31 7 0 24 -3 37 -7 22 -6 23 -4 17
23 -11 45 -22 48 -45 15z"/>
<path d="M1261 3574 c0 -11 3 -14 6 -6 3 7 2 16 -1 19 -3 4 -6 -2 -5 -13z"/>
<path d="M1236 3462 c-27 -144 -29 -183 -13 -231 16 -44 15 -61 -4 -61 -5 0
-10 19 -11 43 -1 29 -3 18 -8 -33 -10 -99 -12 -255 -4 -247 4 4 6 44 5 89 -1
46 3 97 8 113 8 25 9 26 10 8 1 -13 6 -23 11 -23 6 0 9 -33 8 -82 l-2 -83 -5
75 c-5 62 -7 70 -13 42 -4 -18 -5 -59 -2 -91 5 -39 3 -61 -5 -65 -6 -4 -10
-32 -9 -69 1 -39 3 -49 5 -27 3 19 8 39 13 44 15 15 24 -23 12 -48 -7 -17 -7
-23 2 -23 9 0 13 19 13 61 0 34 -2 53 -4 44 -3 -10 -9 -18 -14 -18 -14 0 -10
27 7 44 13 14 15 37 11 149 -3 72 -10 148 -14 167 -5 19 -9 49 -8 65 4 89 5
100 14 85 7 -9 9 -1 7 25 -2 22 3 60 10 85 16 54 16 50 6 50 -5 0 -16 -40 -26
-88z"/>
<path d="M1242 3330 c0 -19 2 -27 5 -17 2 9 2 25 0 35 -3 9 -5 1 -5 -18z"/>
<path d="M1230 2765 c0 -8 4 -15 10 -15 5 0 7 7 4 15 -4 8 -8 15 -10 15 -2 0
-4 -7 -4 -15z"/>
<path d="M1241 2724 c0 -11 3 -14 6 -6 3 7 2 16 -1 19 -3 4 -6 -2 -5 -13z"/>
<path d="M1241 2684 c0 -11 3 -14 6 -6 3 7 2 16 -1 19 -3 4 -6 -2 -5 -13z"/>
<path d="M1788 1559 c-28 -16 -22 -31 31 -83 l49 -49 -2 34 c-2 19 -4 41 -5
50 -1 16 -37 59 -49 59 -4 0 -15 -5 -24 -11z"/>
<path d="M1937 1401 c-6 -28 -3 -39 15 -58 24 -26 35 -24 19 4 -6 10 -14 34
-19 53 l-8 35 -7 -34z"/>
</g>
</svg>
