<?xml version="1.0" standalone="no"?>
<!DOCTYPE svg PUBLIC "-//W3C//DTD SVG 20010904//EN"
 "http://www.w3.org/TR/2001/REC-SVG-20010904/DTD/svg10.dtd">
<svg version="1.0" xmlns="http://www.w3.org/2000/svg"
 width="1280.000000pt" height="820.000000pt" viewBox="0 0 1280.000000 820.000000"
 preserveAspectRatio="xMidYMid meet">
<metadata>
Created by potrace 1.15, written by Peter Selinger 2001-2017
</metadata>
<g transform="translate(0.000000,820.000000) scale(0.100000,-0.100000)"
fill="#000000" stroke="none">
<path d="M4719 8177 c-49 -33 -65 -83 -50 -155 12 -54 18 -63 131 -174 89 -88
121 -127 129 -155 7 -23 11 -178 11 -401 l0 -364 -44 -43 c-27 -26 -49 -58
-55 -81 -7 -26 -11 -242 -11 -636 l0 -598 -172 0 c-411 0 -1033 -29 -1398 -65
-956 -95 -1737 -306 -2210 -598 -117 -72 -242 -177 -239 -201 3 -23 -1 -37
-10 -32 -5 3 -8 -2 -7 -12 0 -9 -4 -16 -11 -15 -8 2 -10 -4 -6 -14 4 -10 2
-14 -5 -9 -6 3 -14 1 -18 -5 -5 -8 -3 -9 6 -4 10 6 11 4 5 -11 -35 -82 -76
-227 -90 -319 -9 -60 -23 -139 -31 -175 -16 -75 -18 -207 -4 -245 5 -14 14
-67 20 -118 14 -123 38 -274 55 -359 8 -38 15 -70 15 -71 0 -1 -28 -3 -63 -5
-338 -14 -589 -105 -648 -237 -17 -37 -19 -79 -19 -578 l0 -539 55 -61 55 -62
0 -112 c0 -110 1 -113 23 -113 20 0 25 -11 49 -112 18 -75 33 -117 46 -128 26
-20 45 -81 37 -122 -8 -46 24 -145 80 -243 55 -97 60 -102 79 -86 11 10 18 5
35 -22 12 -19 21 -43 21 -54 0 -11 12 -38 26 -59 31 -47 174 -194 189 -194 11
0 77 -64 154 -150 48 -54 182 -143 239 -159 44 -13 115 -52 141 -77 48 -48
216 -109 326 -118 28 -2 69 -11 93 -20 23 -9 61 -23 85 -32 57 -22 226 -29
325 -15 63 9 94 9 139 0 51 -10 72 -9 161 9 56 11 121 29 145 40 60 29 134 49
197 56 65 7 223 83 276 133 20 18 78 53 129 78 108 51 207 132 275 223 38 50
51 61 81 65 49 6 90 38 137 106 75 108 101 181 57 165 -30 -12 35 80 68 96 42
20 80 79 111 171 39 116 49 171 35 180 -15 9 5 89 32 122 42 55 49 116 45 407
-3 165 -9 290 -16 313 -6 22 -9 42 -5 45 11 12 572 14 593 3 13 -7 22 -26 26
-56 4 -26 18 -58 32 -75 25 -29 30 -30 102 -30 l77 0 130 -90 130 -90 252 0
252 0 3 -157 3 -158 567 -3 566 -2 6 62 c3 35 8 107 12 160 l6 98 164 0 c130
0 164 -3 164 -13 0 -52 119 -327 142 -327 18 -1 70 -120 75 -172 7 -79 81
-213 193 -346 40 -48 58 -62 73 -58 23 6 50 -22 111 -114 66 -100 158 -177
431 -360 44 -30 101 -73 128 -96 26 -23 71 -55 100 -72 67 -37 250 -112 275
-112 28 0 172 -53 212 -78 51 -32 127 -59 216 -76 109 -20 240 -30 247 -19 9
14 150 -3 205 -24 84 -32 395 -17 458 22 31 20 139 37 222 36 41 -1 104 6 140
15 75 19 268 97 291 118 22 19 183 90 251 110 72 21 176 89 333 218 92 76 138
107 163 111 78 13 184 106 285 250 37 54 46 73 39 87 -13 23 55 115 109 147
67 40 136 152 206 332 21 54 30 91 25 101 -10 19 42 155 71 187 19 20 32 23
91 23 51 0 68 -3 68 -14 0 -40 366 -129 453 -111 53 12 92 42 121 94 26 49 55
160 56 213 0 25 -3 27 -52 30 l-53 3 -45 -90 c-38 -76 -49 -90 -69 -90 -42 0
-61 53 -61 168 0 110 -11 141 -62 181 -82 61 -187 59 -250 -4 -21 -21 -38 -47
-38 -59 0 -18 -5 -22 -27 -19 l-26 3 -1 145 c0 127 3 153 23 210 22 60 23 75
17 195 -7 138 -24 243 -43 266 -17 21 -33 124 -36 240 -2 83 -9 120 -31 182
-39 110 -92 224 -109 234 -24 13 -63 102 -86 192 -13 52 -37 111 -60 150 -54
89 -169 232 -192 238 -25 7 -105 106 -134 167 -13 28 -48 78 -77 110 -29 33
-48 61 -43 63 6 2 73 32 149 68 77 36 145 65 152 65 7 0 19 -31 30 -80 18 -83
31 -101 87 -115 35 -9 59 27 51 75 -17 105 -25 115 -245 320 -160 149 -218
210 -248 260 -60 100 -159 199 -298 301 -155 114 -248 168 -380 219 -277 109
-579 152 -1033 149 l-175 -1 -47 264 c-175 984 -278 1571 -278 1579 0 5 111 9
254 9 l253 0 26 38 c107 158 -1 287 -306 366 -515 134 -1871 125 -2887 -20
-279 -39 -771 -133 -811 -154 -29 -16 -59 -70 -59 -107 0 -41 34 -80 85 -97
l40 -14 5 -287 c5 -287 5 -287 29 -306 30 -24 52 -24 85 2 14 11 26 18 26 15
0 -3 -16 -63 -35 -133 -111 -404 -187 -850 -202 -1185 l-6 -138 -194 0 -193 0
0 598 c0 389 -4 610 -11 635 -6 21 -28 56 -50 78 l-39 39 0 435 c0 489 5 455
-78 555 -55 66 -273 290 -282 290 -4 0 -22 -10 -41 -23z m1308 -619 c-4 -13
-43 -133 -89 -268 l-83 -245 0 268 0 267 89 0 c87 0 88 0 83 -22z m1726 -105
l427 -6 0 -889 0 -888 -157 -1 c-87 -1 -165 -2 -173 -3 -8 -2 -33 -3 -54 -4
l-39 -2 6 -95 5 -95 -61 -42 c-174 -117 -399 -329 -524 -494 -200 -263 -338
-542 -428 -866 l-16 -58 -380 0 -379 0 0 208 c0 115 3 244 7 286 l6 77 196
160 c116 95 209 179 228 206 45 65 60 138 44 214 l-12 59 60 69 c77 90 129
167 179 267 39 78 146 202 188 218 30 12 126 -24 248 -91 137 -76 189 -87 194
-41 2 15 -5 42 -15 61 -38 73 -627 657 -662 657 -32 0 -27 -33 34 -231 30 -98
55 -194 55 -214 0 -47 -21 -94 -56 -126 -29 -26 -454 -293 -458 -287 -21 33
-145 159 -171 174 l-35 19 0 255 c0 421 44 738 140 1015 66 192 167 364 267
455 l58 53 425 -6 c234 -4 617 -10 853 -14z m1023 -19 l80 -5 28 -71 c136
-350 156 -840 55 -1328 -34 -166 -45 -197 -75 -203 -24 -4 -26 -2 -20 22 55
250 68 360 46 402 -6 10 -26 25 -45 33 -40 17 -50 45 -41 111 11 72 -37 145
-96 145 -47 0 -99 -62 -162 -193 -86 -177 -120 -311 -97 -380 11 -33 9 -41
-38 -135 l-50 -100 -63 -20 c-35 -12 -71 -24 -80 -27 -17 -7 -18 39 -18 872 0
484 2 882 4 884 6 6 473 0 572 -7z m-1888 -1385 c3 -7 -73 -66 -92 -71 -8 -3
-34 58 -92 211 l-24 63 102 -98 c57 -53 104 -101 106 -105z m368 -357 c22 -34
12 -37 -38 -12 -36 19 -269 157 -318 189 -12 9 -7 18 29 55 l44 45 134 -127
c74 -70 141 -138 149 -150z m-6386 -1002 c0 13 1 13 10 0 8 -12 10 -12 10 -1
0 8 2 12 5 10 2 -3 -14 -61 -36 -129 -23 -69 -51 -184 -62 -257 -12 -73 -25
-133 -30 -133 -20 0 32 256 79 390 19 56 33 104 31 107 -3 2 -19 -36 -37 -84
-35 -98 -74 -256 -85 -351 -4 -34 -11 -62 -16 -62 -12 0 -12 -1 6 105 18 109
43 207 79 299 14 38 24 71 22 73 -7 7 -63 -146 -85 -231 -11 -43 -26 -116 -32
-162 -7 -46 -16 -84 -21 -84 -4 0 -8 4 -8 9 0 25 33 196 51 260 26 99 100 256
110 239 7 -10 9 -10 9 2z m79 -6 c1 11 3 17 6 14 3 -3 -8 -67 -25 -142 -16
-75 -38 -192 -48 -261 -9 -69 -21 -125 -25 -125 -15 0 15 197 60 383 14 60 23
110 21 113 -8 8 -69 -259 -85 -371 -17 -117 -40 -176 -28 -70 18 163 102 494
116 459 7 -18 8 -18 8 0z m36 -99 c-27 -175 -37 -225 -47 -225 -5 0 -7 8 -4
18 3 9 14 71 26 137 27 159 31 177 36 173 2 -3 -3 -49 -11 -103z m-195 8 c-43
-101 -74 -213 -91 -330 -7 -46 -16 -83 -21 -83 -10 0 -10 -1 7 107 18 114 57
237 101 326 19 37 36 67 38 67 2 0 -13 -39 -34 -87z m214 -49 c-9 -71 -20
-136 -25 -144 -14 -24 -11 12 11 145 11 66 20 124 20 129 0 5 2 7 5 4 3 -2 -2
-63 -11 -134z m-123 15 c-17 -57 -41 -166 -53 -241 -13 -76 -26 -138 -30 -138
-11 0 -11 3 12 136 19 110 38 187 77 307 29 92 24 39 -6 -64z m148 -10 c-12
-112 -27 -185 -28 -129 0 14 6 70 14 125 8 55 15 106 15 114 0 8 2 12 5 9 3
-3 1 -57 -6 -119z m26 18 c-3 -56 -10 -118 -15 -137 l-8 -35 -1 30 c-1 40 21
245 27 245 2 0 1 -46 -3 -103z m20 -64 c-4 -60 -11 -103 -17 -103 -6 0 -8 12
-5 30 4 16 10 78 14 137 4 59 9 92 11 73 2 -19 1 -81 -3 -137z m14 -97 c-9 -8
-10 3 -5 44 3 30 7 93 8 140 2 63 3 52 5 -44 3 -89 0 -133 -8 -140z m-143 91
c-15 -78 -31 -158 -36 -178 -6 -20 -10 -59 -10 -87 0 -28 -5 -54 -11 -58 -18
-11 1 125 48 354 36 174 43 151 9 -31z m183 33 c0 -30 -4 -73 -8 -95 -6 -29
-9 -2 -9 95 0 97 3 124 9 95 4 -22 8 -65 8 -95z m20 -24 c1 -60 -1 -107 -5
-104 -3 3 -6 63 -7 133 -1 70 1 117 4 104 4 -13 7 -73 8 -133z m21 139 l1 20
9 -20 9 -20 1 20 c4 42 30 -71 36 -158 5 -67 4 -88 -4 -83 -7 4 -12 39 -13 89
-1 45 -5 96 -9 112 -4 17 -6 -24 -4 -90 l3 -120 -9 114 c-5 62 -12 116 -16
120 -3 3 -3 -44 1 -105 5 -78 4 -113 -4 -118 -8 -5 -11 24 -11 101 0 59 -3
119 -5 133 -5 22 -4 22 4 5 l10 -20 1 20z m79 -150 c5 -44 5 -84 1 -88 -4 -4
-10 29 -13 75 -3 46 -9 99 -12 118 -5 35 -5 35 5 5 6 -16 14 -66 19 -110z m27
-24 c9 -104 -1 -87 -15 24 -6 50 -13 101 -16 115 -3 14 2 5 10 -19 8 -24 17
-78 21 -120z m25 149 c0 12 2 12 6 1 4 -10 7 -10 13 -1 5 8 16 -12 28 -51 28
-88 41 -158 31 -165 -5 -3 -9 4 -9 16 0 30 -31 162 -37 157 -2 -3 3 -39 11
-81 17 -81 19 -103 10 -93 -11 10 -33 161 -28 187 4 22 3 22 -5 5 -9 -19 -10
-19 -10 -1 -1 11 -3 17 -6 14 -3 -3 1 -37 10 -77 8 -40 14 -87 14 -104 -1 -25
-3 -21 -10 18 -11 62 -30 155 -36 175 -4 13 -4 13 6 0 9 -13 11 -13 12 0z m69
-20 c0 13 1 13 10 0 9 -13 10 -13 10 0 0 13 1 13 10 0 9 -13 10 -13 10 0 1 9
6 5 15 -10 9 -15 15 -19 15 -10 0 9 6 5 15 -10 9 -15 15 -19 15 -10 0 9 6 5
15 -10 9 -15 15 -19 15 -10 0 9 6 5 15 -10 16 -27 21 -10 6 19 -8 15 -4 17 34
16 24 0 47 -4 52 -9 4 -5 3 -6 -4 -2 -7 4 -13 4 -13 -1 1 -15 49 -98 50 -85 0
7 -5 23 -11 34 -9 16 -8 19 2 13 9 -6 11 -3 6 8 -3 10 -4 17 -2 17 8 0 65
-118 64 -132 0 -7 -11 10 -24 37 -13 28 -24 44 -24 37 -1 -7 6 -27 15 -43 8
-17 13 -33 10 -36 -3 -3 -12 10 -21 28 l-15 34 5 -30 c4 -24 -1 -19 -19 20
-28 58 -34 55 -10 -5 9 -23 14 -43 12 -46 -3 -2 -16 23 -29 57 -12 35 -24 58
-26 52 -2 -5 6 -31 17 -58 11 -26 18 -50 16 -53 -3 -3 -10 8 -16 24 -6 16 -15
38 -20 49 -11 21 -11 24 5 -55 3 -14 -4 1 -16 33 -25 69 -39 70 -15 1 9 -26
14 -49 12 -51 -2 -3 -14 26 -26 62 -12 36 -24 64 -27 61 -3 -3 2 -26 11 -52 9
-26 16 -55 16 -63 -1 -9 -12 19 -26 62 -14 44 -28 77 -30 74 -3 -3 5 -35 17
-71 11 -37 19 -70 16 -73 -3 -2 -13 23 -23 56 -21 77 -31 74 -11 -3 9 -31 12
-56 8 -56 -4 0 -13 25 -20 56 -12 53 -40 129 -41 111 0 -5 9 -40 21 -78 11
-38 19 -74 16 -81 -2 -7 -8 1 -12 17 -16 71 -47 167 -51 162 -3 -3 4 -35 15
-72 12 -37 21 -79 20 -94 -1 -20 -3 -17 -10 14 -16 71 -32 126 -36 122 -2 -2
4 -34 12 -72 9 -37 14 -72 12 -79 -3 -6 -8 3 -11 19 -21 93 -36 154 -42 171
-5 16 -4 16 5 4 9 -13 11 -13 11 0z m-75 -86 c17 -93 18 -117 6 -110 -4 3 -11
36 -15 73 -3 37 -9 82 -12 98 -4 17 -4 27 0 24 4 -4 14 -42 21 -85z m-584
-929 c11 -76 26 -166 33 -201 8 -35 10 -64 6 -64 -12 0 -48 184 -65 330 -4 30
-9 64 -12 75 -4 15 -2 17 6 9 6 -6 21 -73 32 -149z m28 13 c7 -57 20 -142 30
-190 18 -91 11 -124 -8 -40 -30 132 -57 332 -44 332 5 0 15 -46 22 -102z m21
75 c0 -16 10 -89 21 -163 12 -74 23 -148 26 -165 3 -21 1 -26 -5 -15 -10 15
-46 210 -58 313 -4 39 -3 57 5 57 6 0 11 -12 11 -27z m34 -50 c6 -69 25 -190
42 -278 4 -22 3 -27 -5 -20 -6 6 -22 83 -36 170 -27 173 -30 205 -16 205 4 0
11 -35 15 -77z m31 -5 c3 -46 14 -127 24 -181 10 -54 14 -100 11 -102 -9 -5
-24 70 -45 215 -17 122 -18 150 -6 150 5 0 12 -37 16 -82z m25 45 c0 -21 9
-98 20 -172 17 -120 19 -154 6 -140 -4 4 -31 190 -42 287 -5 43 -3 62 5 62 6
0 11 -16 11 -37z m34 -45 c4 -46 9 -108 13 -138 3 -30 2 -52 -2 -48 -7 7 -34
197 -35 246 0 12 4 22 9 22 4 0 11 -37 15 -82z m13 50 c-3 -7 -5 -2 -5 12 0
14 2 19 5 13 2 -7 2 -19 0 -25z m5633 -1812 c0 -18 -3 -54 -6 -80 l-7 -46
-441 2 -441 3 -3 69 c-2 38 -1 74 1 80 3 8 133 10 451 8 l446 -2 0 -34z"/>
<path d="M1371 4574 c0 -11 3 -14 6 -6 3 7 2 16 -1 19 -3 4 -6 -2 -5 -13z"/>
<path d="M1441 4565 c1 -19 18 -51 18 -35 0 8 -4 22 -9 30 -5 8 -9 11 -9 5z"/>
<path d="M1536 4540 c13 -48 21 -54 28 -24 l8 29 13 -25 c8 -14 14 -20 14 -15
0 17 -28 61 -29 45 0 -13 -1 -13 -10 0 -9 13 -10 13 -10 0 0 -13 -1 -13 -11 0
-8 11 -9 9 -3 -10z"/>
<path d="M632 3790 c0 -14 2 -19 5 -12 2 6 2 18 0 25 -3 6 -5 1 -5 -13z"/>
</g>
</svg>
