<?xml version="1.0" standalone="no"?>
<!DOCTYPE svg PUBLIC "-//W3C//DTD SVG 20010904//EN"
 "http://www.w3.org/TR/2001/REC-SVG-20010904/DTD/svg10.dtd">
<svg version="1.0" xmlns="http://www.w3.org/2000/svg"
 width="668.000000pt" height="1280.000000pt" viewBox="0 0 668.000000 1280.000000"
 preserveAspectRatio="xMidYMid meet">
<g transform="translate(0.000000,1280.000000) scale(0.100000,-0.100000)"
fill="#000000" stroke="none">
<path d="M2229 12796 c-2 -2 -85 -12 -184 -21 -240 -22 -314 -38 -414 -86
-113 -53 -194 -113 -276 -201 -120 -130 -200 -298 -211 -448 -9 -107 -6 -103
-101 -156 -121 -67 -242 -186 -272 -267 -38 -103 -26 -187 40 -286 123 -185
461 -335 903 -402 170 -26 534 -36 712 -20 487 45 863 180 1042 375 99 107
123 236 67 352 -36 74 -136 175 -231 230 l-69 41 -7 84 c-13 166 -67 331 -149
454 -61 90 -92 116 -239 193 -161 85 -247 120 -353 143 -79 17 -246 26 -258
15z"/>
<path d="M5494 12069 l-38 -39 79 -80 c44 -44 84 -80 90 -80 10 0 75 77 75 90
0 6 -137 131 -156 143 -6 3 -28 -12 -50 -34z"/>
<path d="M5180 11943 c-68 -81 -130 -156 -137 -165 -13 -15 20 -100 301 -764
174 -412 319 -751 324 -755 5 -5 629 535 710 615 11 11 -78 117 -519 612 -293
329 -537 600 -544 602 -7 2 -68 -64 -135 -145z"/>
<path d="M4788 11218 c-1199 -1392 -4760 -5541 -4764 -5552 -7 -19 101 -134
114 -121 30 31 4979 5722 4985 5732 8 13 -72 223 -84 223 -5 0 -118 -127 -251
-282z"/>
<path d="M2780 10898 c-199 -48 -342 -62 -640 -62 -298 -1 -403 9 -618 55 -52
11 -96 18 -99 16 -10 -11 17 -175 41 -252 37 -117 89 -198 191 -300 73 -74
106 -99 175 -132 116 -57 194 -76 315 -76 116 0 198 18 300 67 169 80 298 219
369 399 42 105 71 288 49 300 -5 2 -42 -5 -83 -15z"/>
<path d="M6125 10464 c-192 -168 -361 -316 -374 -329 l-25 -24 29 -71 c16 -39
32 -69 36 -68 11 4 773 654 789 672 10 13 4 25 -35 71 -26 30 -53 55 -59 55
-6 0 -168 -138 -361 -306z"/>
<path d="M1470 10117 c-48 -26 -425 -261 -431 -269 -3 -4 -13 -122 -22 -261
-9 -138 -39 -585 -67 -992 -72 -1073 -110 -1679 -104 -1685 3 -3 22 14 42 37
20 23 116 128 212 235 254 279 491 550 871 994 333 389 1042 1217 1152 1345
l57 67 -16 149 c-9 81 -22 154 -28 161 -14 14 -452 202 -472 202 -8 0 -41 -18
-73 -40 -281 -192 -644 -182 -916 25 -55 42 -64 45 -120 45 -33 0 -71 -6 -85
-13z"/>
<path d="M3340 9836 c0 -47 12 -51 45 -16 l28 29 -27 11 c-41 15 -46 13 -46
-24z"/>
<path d="M718 9706 c-87 -39 -162 -76 -168 -82 -11 -11 -480 -1959 -480 -1996
0 -22 268 -1125 288 -1187 7 -22 21 -8 167 170 87 107 164 201 172 210 11 13
0 89 -77 500 l-89 485 184 974 c102 536 185 980 185 987 0 21 -16 15 -182 -61z"/>
<path d="M3604 9374 c-76 -98 -145 -187 -152 -198 -12 -18 -1 -80 83 -476 202
-955 246 -1166 248 -1185 1 -10 -5 -21 -13 -22 -8 -2 -240 84 -515 192 -391
153 -502 192 -511 182 -24 -27 -317 -500 -318 -515 -1 -17 -7 -16 1192 -232
314 -57 575 -100 578 -97 8 7 -435 2508 -445 2520 -4 4 -70 -72 -147 -169z"/>
<path d="M2594 8198 c-351 -414 -886 -1040 -1187 -1392 l-548 -639 7 -76 c3
-42 7 -77 8 -78 1 -2 180 2 397 7 562 14 1155 28 1754 41 286 6 524 15 528 19
5 4 -8 155 -28 336 -19 181 -43 394 -51 474 -16 148 -25 170 -63 170 -14 0
-1080 190 -1153 206 -16 3 -28 10 -28 16 0 5 111 176 248 379 167 249 253 369
264 369 20 0 130 -48 394 -173 99 -47 193 -89 209 -93 l28 -7 -6 44 c-4 24
-23 204 -42 399 -20 195 -44 440 -55 543 -11 104 -20 192 -20 198 0 5 -4 9 -8
9 -5 0 -296 -339 -648 -752z"/>
<path d="M3030 5740 c-245 -4 -821 -13 -1280 -19 -459 -7 -841 -15 -849 -17
-17 -6 -24 103 95 -1579 79 -1119 95 -1373 90 -1484 -10 -222 -116 -1974 -121
-1996 -2 -11 -139 -146 -304 -300 -165 -153 -298 -281 -296 -283 2 -2 91 1
197 7 106 6 456 25 778 41 321 17 586 33 589 35 2 3 -5 105 -16 228 l-21 222
22 1070 23 1070 172 980 c94 539 176 991 182 1005 11 24 12 24 20 5 5 -11 43
-204 84 -430 260 -1403 267 -1438 520 -2530 135 -583 253 -1090 261 -1127 l15
-67 -151 -222 c-83 -121 -150 -222 -148 -224 7 -7 1238 -28 1244 -22 4 4 -70
129 -164 279 l-170 273 -11 180 c-19 308 -49 819 -81 1345 -17 278 -40 651
-52 830 -20 300 -22 417 -25 1533 l-4 1207 -77 -2 c-42 -1 -277 -5 -522 -8z"/>
<path d="M4816 4465 c-9 -26 -7 -32 5 -12 6 10 9 21 6 23 -2 3 -7 -2 -11 -11z"/>
<path d="M4746 4413 c-6 -14 -5 -15 5 -6 7 7 10 15 7 18 -3 3 -9 -2 -12 -12z"/>
<path d="M6046 4415 c-9 -26 -7 -32 5 -12 6 10 9 21 6 23 -2 3 -7 -2 -11 -11z"/>
<path d="M4786 4375 c-3 -8 -1 -15 4 -15 6 0 10 7 10 15 0 8 -2 15 -4 15 -2 0
-6 -7 -10 -15z"/>
<path d="M5976 4374 c-4 -9 -4 -19 -1 -22 2 -3 7 3 11 12 4 9 4 19 1 22 -2 3
-7 -3 -11 -12z"/>
<path d="M6016 4323 c-6 -14 -5 -15 5 -6 7 7 10 15 7 18 -3 3 -9 -2 -12 -12z"/>
<path d="M4751 4304 c0 -11 3 -14 6 -6 3 7 2 16 -1 19 -3 4 -6 -2 -5 -13z"/>
<path d="M4706 4293 c-6 -14 -5 -15 5 -6 7 7 10 15 7 18 -3 3 -9 -2 -12 -12z"/>
<path d="M6037 4271 c-4 -17 -3 -21 5 -13 5 5 8 16 6 23 -3 8 -7 3 -11 -10z"/>
<path d="M5976 4264 c-4 -9 -4 -19 -1 -22 2 -3 7 3 11 12 4 9 4 19 1 22 -2 3
-7 -3 -11 -12z"/>
<path d="M5937 4253 c-4 -3 -7 -11 -7 -17 0 -6 5 -5 12 2 6 6 9 14 7 17 -3 3
-9 2 -12 -2z"/>
<path d="M4781 4214 c0 -11 3 -14 6 -6 3 7 2 16 -1 19 -3 4 -6 -2 -5 -13z"/>
<path d="M4731 4194 c0 -11 3 -14 6 -6 3 7 2 16 -1 19 -3 4 -6 -2 -5 -13z"/>
<path d="M6012 4170 c0 -14 2 -19 5 -12 2 6 2 18 0 25 -3 6 -5 1 -5 -13z"/>
<path d="M5962 4150 c0 -14 2 -19 5 -12 2 6 2 18 0 25 -3 6 -5 1 -5 -13z"/>
<path d="M5901 4134 c0 -11 3 -14 6 -6 3 7 2 16 -1 19 -3 4 -6 -2 -5 -13z"/>
<path d="M4702 4110 c0 -14 2 -19 5 -12 2 6 2 18 0 25 -3 6 -5 1 -5 -13z"/>
<path d="M4755 4119 c-4 -6 -5 -12 -2 -15 2 -3 7 2 10 11 7 17 1 20 -8 4z"/>
<path d="M4651 4064 c0 -11 3 -14 6 -6 3 7 2 16 -1 19 -3 4 -6 -2 -5 -13z"/>
<path d="M5931 4064 c0 -11 3 -14 6 -6 3 7 2 16 -1 19 -3 4 -6 -2 -5 -13z"/>
<path d="M5980 4065 c0 -8 2 -15 4 -15 2 0 6 7 10 15 3 8 1 15 -4 15 -6 0 -10
-7 -10 -15z"/>
<path d="M4721 4054 c0 -11 3 -14 6 -6 3 7 2 16 -1 19 -3 4 -6 -2 -5 -13z"/>
<path d="M5881 4014 c0 -11 3 -14 6 -6 3 7 2 16 -1 19 -3 4 -6 -2 -5 -13z"/>
<path d="M5951 4004 c0 -11 3 -14 6 -6 3 7 2 16 -1 19 -3 4 -6 -2 -5 -13z"/>
<path d="M4682 3980 c0 -14 2 -19 5 -12 2 6 2 18 0 25 -3 6 -5 1 -5 -13z"/>
<path d="M4731 3954 c0 -11 3 -14 6 -6 3 7 2 16 -1 19 -3 4 -6 -2 -5 -13z"/>
<path d="M5912 3930 c0 -14 2 -19 5 -12 2 6 2 18 0 25 -3 6 -5 1 -5 -13z"/>
<path d="M4631 3924 c0 -11 3 -14 6 -6 3 7 2 16 -1 19 -3 4 -6 -2 -5 -13z"/>
<path d="M4681 3884 c0 -11 3 -14 6 -6 3 7 2 16 -1 19 -3 4 -6 -2 -5 -13z"/>
<path d="M5861 3874 c0 -11 3 -14 6 -6 3 7 2 16 -1 19 -3 4 -6 -2 -5 -13z"/>
<path d="M5911 3834 c0 -11 3 -14 6 -6 3 7 2 16 -1 19 -3 4 -6 -2 -5 -13z"/>
<path d="M4238 3582 c-16 -3 -16 -5 -2 -27 14 -22 15 -53 5 -282 -18 -435 -24
-1059 -12 -1353 18 -466 84 -917 176 -1208 41 -129 107 -291 112 -275 2 6 -25
143 -61 305 -117 528 -149 793 -175 1458 -14 334 -25 1221 -17 1255 6 22 9 25
22 14 18 -15 92 -152 130 -242 39 -92 43 -69 4 27 -40 103 -75 171 -116 229
-19 26 -34 55 -34 65 0 25 -13 38 -32 34z"/>
<path d="M5450 3533 c0 -2 7 -15 16 -28 14 -22 15 -50 5 -262 -18 -396 -24
-1095 -12 -1388 24 -616 120 -1112 282 -1467 34 -76 45 -93 51 -78 9 25 0 50
-17 50 -16 0 -15 -4 -60 195 -128 567 -164 819 -195 1360 -23 412 -39 1476
-22 1503 7 10 12 8 24 -5 21 -24 89 -153 124 -235 37 -89 44 -79 9 14 -37 98
-80 183 -122 241 -18 26 -36 60 -39 75 -4 19 -12 28 -25 28 -10 0 -19 -2 -19
-3z"/>
<path d="M4552 2845 c0 -16 2 -22 5 -12 2 9 2 23 0 30 -3 6 -5 -1 -5 -18z"/>
<path d="M5782 2795 c0 -16 2 -22 5 -12 2 9 2 23 0 30 -3 6 -5 -1 -5 -18z"/>
<path d="M4964 2668 c-130 -134 -230 -273 -289 -402 -23 -52 -40 -76 -49 -73
-9 4 -18 -17 -31 -71 -22 -95 -33 -120 -46 -101 -5 9 -8 -21 -8 -76 l0 -90 25
90 c59 216 239 516 467 778 33 37 57 67 54 67 -2 0 -58 -55 -123 -122z"/>
<path d="M6180 2608 c-132 -143 -204 -245 -271 -381 -26 -51 -49 -85 -55 -83
-8 3 -17 -15 -24 -47 -27 -118 -31 -129 -46 -123 -11 4 -14 -10 -13 -82 l0
-87 20 75 c25 90 78 223 127 310 87 158 235 365 351 493 29 31 48 57 42 57 -5
0 -64 -59 -131 -132z"/>
<path d="M4797 1935 c-4 -55 -7 -157 -7 -226 0 -156 -14 -338 -41 -534 -30
-220 -57 -358 -139 -692 -4 -18 -6 -33 -4 -33 8 0 67 140 104 246 45 132 75
261 90 399 15 131 24 723 13 845 l-9 95 -7 -100z"/>
<path d="M6027 1936 c-4 -27 -7 -128 -7 -225 0 -366 -57 -789 -160 -1191 -16
-63 -28 -116 -26 -117 7 -7 81 170 116 277 44 135 66 237 80 375 24 234 21
1043 -3 881z"/>
<path d="M4542 407 c-10 -11 -9 -21 2 -47 l13 -32 7 25 c3 14 2 35 -2 47 -7
19 -10 20 -20 7z"/>
</g>
</svg>
